<svg width="379" height="379" xmlns="http://www.w3.org/2000/svg" xmlns:xlink="http://www.w3.org/1999/xlink" overflow="hidden"><defs><linearGradient x1="475.5" y1="343" x2="475.5" y2="569" gradientUnits="userSpaceOnUse" spreadMethod="reflect" id="fill0"><stop offset="0" stop-color="#F7FAFD"/><stop offset="0.75" stop-color="#B4C7E7" stop-opacity="0.901961"/><stop offset="0.85" stop-color="#B4C7E7"/><stop offset="1" stop-color="#DAE3F3"/></linearGradient></defs><g transform="translate(-286 -304)"><path d="M287 494C287 389.618 371.394 305 475.5 305 579.606 305 664 389.618 664 494 664 598.382 579.606 683 475.5 683 371.394 683 287 598.382 287 494Z" fill="#FFFFFF" fill-rule="evenodd" fill-opacity="0"/><rect x="308" y="600" width="252" height="83" fill="#2F5597"/><path d="M308 600 392.204 516 643 516 558.796 600Z" fill="#5775AA" fill-rule="evenodd"/><path d="M362 456C362 393.592 412.816 343 475.5 343 538.184 343 589 393.592 589 456 589 518.408 538.184 569 475.5 569 412.816 569 362 518.408 362 456Z" fill="url(#fill0)" fill-rule="evenodd"/><path d="M0 83 82.7435 0 167 0 84.2565 83Z" fill="#203864" fill-rule="evenodd" transform="matrix(6.12323e-17 1 1 -6.12323e-17 560 516)"/></g></svg>