<svg xmlns="http://www.w3.org/2000/svg" xmlns:xlink="http://www.w3.org/1999/xlink" width="380" height="379" overflow="hidden"><defs><radialGradient cx="1600200" cy="1633538" r="2376517" gradientUnits="userSpaceOnUse" spreadMethod="pad" id="stroke0" gradientTransform="matrix(0.000104987 0 0 0.000104987 1029.5 783.5)"><stop offset="0" stop-color="#8FAADC"/><stop offset="0.16" stop-color="#8FAADC"/><stop offset="0.36" stop-color="#203864"/><stop offset="1" stop-color="#2F5597"/></radialGradient><linearGradient x1="1195.97" y1="787.969" x2="1195.97" y2="1003.97" gradientUnits="userSpaceOnUse" spreadMethod="reflect" id="fill1"><stop offset="0" stop-color="#F7FAFD"/><stop offset="0.75" stop-color="#B4C7E7" stop-opacity="0.901961"/><stop offset="0.85" stop-color="#B4C7E7"/><stop offset="1" stop-color="#DAE3F3"/></linearGradient></defs><g transform="translate(-1009 -765)"><path d="M1009.93 954.424C1009.93 850.319 1094.54 765.925 1198.93 765.925 1303.31 765.925 1387.93 850.319 1387.93 954.424 1387.93 1058.53 1303.31 1142.93 1198.93 1142.93 1094.54 1142.93 1009.93 1058.53 1009.93 954.424Z" fill="#FFFFFF" fill-rule="evenodd" fill-opacity="0"/><path d="M1028.97 1039.97 1280.97 1039.97 1280.97 1122.97 1028.97 1122.97Z" fill="#2F5597" fill-rule="evenodd"/><path d="M1028.97 1039.97 1113.17 955.968 1363.97 955.968 1279.77 1039.97Z" fill="#5775AA" fill-rule="evenodd"/><path d="M0.024357 83.0267 82.7679 0.0266667 167.024 0.0266667 84.2808 83.0267Z" fill="#203864" fill-rule="evenodd" transform="matrix(6.12323e-17 1 1 -6.12323e-17 1281 956)"/><path d="M1293.15 957.763C1259.47 1010.65 1189.54 1026.3 1136.97 992.713 1084.39 959.126 1068.28 890.089 1102.76 836.13 1136.53 783.294 1206.37 767.592 1258.94 801.18 1311.51 834.768 1323.98 904.434 1294.67 953.761 1292.43 958.313 1293.64 956.697 1313.49 957.136L1365.5 957.036C1365.27 981.679 1364.79 1017.44 1365.23 1040.83 1343.03 1063.96 1314.2 1091.27 1280.23 1126.5L1029.5 1125.44 1029.5 1041.1 1115.3 957.036 1365.36 957.036 1279.17 1041.37 1280.3 1126.44 1279.17 1041.63 1030.03 1041.63" stroke="url(#stroke0)" stroke-width="13.3333" stroke-linecap="round" stroke-linejoin="round" stroke-miterlimit="10" fill="none" fill-rule="evenodd"/><path d="M1088.97 895.969C1088.97 836.323 1136.88 787.969 1195.97 787.969 1255.07 787.969 1302.97 836.323 1302.97 895.969 1302.97 955.616 1255.07 1003.97 1195.97 1003.97 1136.88 1003.97 1088.97 955.616 1088.97 895.969Z" fill="url(#fill1)" fill-rule="evenodd"/></g></svg>
